<svg xmlns="http://www.w3.org/2000/svg" x="0px" y="0px"
width="50" height="50"
viewBox="0 0 172 172"
style=" fill:#000000;"><g transform=""><g fill="none" fill-rule="nonzero" stroke="none" stroke-width="1" stroke-linecap="butt" stroke-linejoin="miter" stroke-miterlimit="10" stroke-dasharray="" stroke-dashoffset="0" font-family="none" font-weight="none" font-size="none" text-anchor="none" style="mix-blend-mode: normal"><path d="M0,172v-172h172v172z" fill="none"></path><path d="" fill="none"></path><g fill="#000000"><path d="M116.4225,4.945l-17.63,26.445l41.8175,41.8175l26.445,-17.63zM96.965,39.345c-11.95937,9.01656 -26.49875,12.255 -52.245,12.255h-2.795l-0.5375,2.795c-6.38281,31.91406 -28.08437,94.65375 -30.6375,102.0175l62.4575,-62.565c0.17469,-0.17469 0.44344,-0.18812 0.645,-0.3225c-0.60469,-1.24969 -0.9675,-2.71437 -0.9675,-4.1925c0,-5.21375 4.24625,-9.3525 9.46,-9.3525c5.21375,0 9.46,4.13875 9.46,9.3525c0,5.22719 -4.23281,9.46 -9.46,9.46c-1.33031,0 -2.60687,-0.25531 -3.7625,-0.7525c-0.14781,0.24188 -0.22844,0.55094 -0.43,0.7525l-62.565,62.4575c7.33688,-2.55312 70.09,-24.25469 102.0175,-30.6375l2.795,-0.5375v-2.795c0,-25.74625 3.23844,-40.28562 12.255,-52.245z"></path></g></g></g></svg>