<?xml version="1.0" encoding="UTF-8"?>
<svg xmlns="http://www.w3.org/2000/svg" xmlns:xlink="http://www.w3.org/1999/xlink" viewBox="0 0 30 30" width="30px" height="30px">
<g id="surface103730570">
<path style=" stroke:none;fill-rule:nonzero;fill:rgb(0%,0%,0%);fill-opacity:1;" d="M 15 0.359375 C 6.914062 0.359375 0.359375 6.914062 0.359375 15 C 0.359375 23.085938 6.914062 29.640625 15 29.640625 C 23.085938 29.640625 29.640625 23.085938 29.640625 15 C 29.640625 6.914062 23.085938 0.359375 15 0.359375 Z M 22.886719 11.992188 C 22.894531 12.15625 22.898438 12.316406 22.898438 12.476562 C 22.898438 17.441406 19.121094 23.160156 12.214844 23.160156 C 10.09375 23.160156 8.121094 22.539062 6.460938 21.472656 C 6.753906 21.507812 7.054688 21.523438 7.355469 21.523438 C 9.117188 21.523438 10.734375 20.925781 12.019531 19.914062 C 10.375 19.886719 8.988281 18.800781 8.511719 17.308594 C 8.738281 17.351562 8.976562 17.375 9.21875 17.375 C 9.558594 17.375 9.894531 17.328125 10.207031 17.242188 C 8.488281 16.898438 7.195312 15.382812 7.195312 13.5625 C 7.195312 13.546875 7.195312 13.53125 7.195312 13.515625 C 7.699219 13.796875 8.277344 13.964844 8.894531 13.984375 C 7.886719 13.3125 7.226562 12.164062 7.226562 10.859375 C 7.226562 10.171875 7.410156 9.527344 7.734375 8.972656 C 9.585938 11.246094 12.351562 12.742188 15.472656 12.898438 C 15.40625 12.621094 15.375 12.335938 15.375 12.042969 C 15.375 9.96875 17.054688 8.285156 19.128906 8.285156 C 20.207031 8.285156 21.183594 8.742188 21.867188 9.472656 C 22.722656 9.300781 23.527344 8.992188 24.253906 8.5625 C 23.972656 9.4375 23.378906 10.171875 22.601562 10.636719 C 23.359375 10.546875 24.085938 10.347656 24.757812 10.046875 C 24.257812 10.800781 23.621094 11.460938 22.886719 11.992188 Z M 22.886719 11.992188 "/>
</g>
</svg>
